<svg width="292" height="38" viewBox="0 0 292 38" fill="none" xmlns="http://www.w3.org/2000/svg">
<g clip-path="url(#clip0_146_2444)">
<path d="M156.51 0.835289C160.202 0.436604 165.43 1.40077 168.363 3.80209C170.018 4.94044 170.678 7.00193 170.719 9.00326C170.856 15.8036 171.135 23.4426 170.285 30.1536C169.753 34.35 163.359 36.0632 159.664 36.3929C156.326 36.6115 151.042 36.0829 148.35 33.8558C143.909 30.181 145.509 20.443 145.172 15.1663C145.03 12.9533 145.269 10.437 145.455 8.35091C145.954 2.76258 151.674 1.35772 156.319 0.85775C156.383 0.849199 156.446 0.842021 156.51 0.835289ZM157.448 5.04427C156.329 5.19379 155.148 5.47042 154.321 6.2933C154.303 6.3118 154.283 6.3301 154.265 6.34896C153.377 7.24966 153.679 24.6711 153.746 27.3245C153.767 28.1624 153.738 30.3395 154.323 30.9212C154.36 30.9573 154.4 30.9896 154.438 31.0238L154.507 31.0853C155.571 32.0236 157.39 32.1103 158.734 32.054C159.796 31.899 161.299 31.6737 162.003 30.7494C162.931 29.5282 162.769 9.78009 162.362 7.4808C162.291 7.07771 162.212 6.7481 161.937 6.43099L161.874 6.35677C160.897 5.22447 159.651 5.18792 158.266 5.09505L157.448 5.04427Z" fill="black"/>
<path d="M77.8076 1.70215C80.1827 1.78994 82.2934 1.77499 84.668 1.73438C86.5565 3.80902 90.3001 12.1529 91.7969 15.1973C93.1109 17.8975 94.5615 20.5294 96.1416 23.083C95.4284 20.3765 95.6503 15.9985 95.665 13.0635L95.7324 1.72754C98.5261 2.01532 101.383 1.72084 104.246 2.0625C104.176 13.3313 104.003 25.181 104.218 36.4199C101.419 36.4645 98.7306 36.5108 95.9326 36.4258C95.3416 34.9926 93.9781 33.318 93.4648 31.9072C91.6869 27.0201 89.2154 22.7693 86.7324 18.2002C86.5481 18.3539 86.4007 18.4902 86.2832 18.6201C86.3615 18.5336 86.453 18.4443 86.5596 18.3486C86.613 18.3007 86.6709 18.2515 86.7324 18.2002C86.246 17.215 85.7344 16.2418 85.1992 15.2822C85.4166 16.9997 85.5577 18.3392 85.6504 19.9736L85.6875 20.6943C85.4927 25.6732 85.641 31.3766 85.5713 36.4658L77.7539 36.4648C77.8522 24.8775 77.8701 13.2897 77.8076 1.70215ZM86.0098 18.998V18.999V18.998Z" fill="black"/>
<path d="M236.472 1.87611C238.935 1.89469 241.399 1.88814 243.863 1.85645C246.869 7.56243 249.61 13.4027 252.657 19.0771C253.398 20.46 254.081 21.7392 254.752 23.1631C254.261 17.1298 254.447 8.07079 254.549 1.8712L262.885 1.86755C263.173 13.2378 262.648 25.0414 262.991 36.4193C262.308 36.637 255.78 36.4587 254.729 36.4374C253.949 34.6336 252.726 32.7552 251.961 30.9935C249.652 25.6689 247.454 20.5091 243.905 15.8461C244.367 22.424 244.185 29.8418 244.173 36.4898L236.45 36.4568C236.242 32.2865 236.326 27.6406 236.322 23.4284C236.29 16.2441 236.339 9.05946 236.472 1.87611Z" fill="black"/>
<path d="M130.174 1.75641C132.968 1.81579 135.542 1.83983 138.33 1.74512L138.322 36.4513L130.368 36.479C129.563 34.8501 128.525 33.2604 127.708 31.5133C125.396 26.5705 122.397 20.0374 119.61 15.4042C119.435 18.2059 119.692 21.1539 119.711 23.9787C119.739 28.1269 119.732 32.2757 119.738 36.4238C118.621 36.6441 113.251 36.3871 111.831 36.3085C112.137 25.0503 111.516 12.9068 111.974 1.83327C114.225 1.92143 116.581 1.64731 118.8 1.99465C119.263 2.06714 119.729 2.79189 119.942 3.18423C121.643 6.11928 122.976 9.36488 124.616 12.3192C126.612 15.9135 128.475 19.5115 130.391 23.1403C129.868 20.5432 130.093 16.7737 130.113 14.023L130.174 1.75641Z" fill="black"/>
<path d="M187.604 0.856038C188.197 0.810502 188.793 0.78919 189.388 0.792287C192.972 0.821976 197.732 1.5908 200.427 4.2204C202.672 6.41212 202.277 9.69561 202.226 12.6279C200.157 12.4529 196.301 12.5441 194.119 12.535C193.97 9.38069 194.664 4.98886 190.248 5.03348C187.232 5.0639 185.22 5.44403 185.236 8.80238C185.265 15.6613 185.156 22.5452 185.275 29.3893C185.307 31.2899 187.405 31.946 188.926 31.9502C195.019 32.5103 194.03 28.1144 194.032 23.6902C194.054 23.0877 193.952 23.1305 194.265 22.7574C195.563 22.5831 200.625 22.6631 202.244 22.6498C202.27 25.665 202.47 30.3732 200.416 32.6197C195.831 37.6309 184.823 37.5015 179.544 33.6115C177.392 32.0258 176.982 29.2281 176.696 26.7894C176.301 23.4206 176.565 19.9517 176.497 16.567C176.541 13.4501 176.064 7.30645 178.078 4.75845C179.981 2.35307 184.646 1.17278 187.604 0.856038Z" fill="black"/>
<path d="M209.013 1.76172C216.164 1.85862 223.315 1.89377 230.464 1.86736L230.45 6.18469C226.081 6.09672 221.713 6.10382 217.344 6.20619C217.368 9.57146 217.371 12.9365 217.355 16.3018C220.314 16.4406 223.583 16.4056 226.58 16.4581C226.726 17.9719 226.797 19.1223 226.817 20.6416C223.714 20.9002 220.334 20.8452 217.198 20.8656C217.171 22.8071 217.264 24.9624 217.308 26.9184L217.386 31.9135C221.425 32.2368 226.349 32.0911 230.461 32.0659L230.453 36.4689C223.694 36.2567 215.827 36.4752 208.978 36.521C208.662 29.2751 209.108 21.757 208.931 14.4742C208.831 10.3148 208.827 5.90583 209.013 1.76172Z" fill="black"/>
<path d="M16.947 2.63184L25.6104 2.64659C25.6282 7.59978 25.3795 13.1998 25.8917 18.1433C25.9529 18.7336 26.434 19.589 26.7345 20.1163C27.8318 20.4419 28.9109 20.623 30.0547 20.6527C31.0294 20.678 32.2737 20.5753 33.0041 19.8456C34.5417 18.3096 33.9731 5.62736 33.963 2.73912C36.8036 2.67865 39.8002 2.60998 42.6282 2.75515L42.6897 7.84331C42.7231 14.1451 44.0866 22.4643 36.779 24.8906C31.6486 26.9714 22.862 26.4474 18.8208 22.3504C15.9916 19.4821 16.7693 6.68706 16.947 2.63184Z" fill="black"/>
<path d="M265.782 1.90267C274.115 1.7371 282.923 1.86934 291.291 1.88737L291.274 6.09487C288.341 6.08722 285.464 6.06044 282.534 6.20342L282.543 27.948L282.561 36.4674L274.387 36.479C274.243 26.3847 274.243 16.2885 274.388 6.19395C271.499 6.22164 268.609 6.19978 265.719 6.12856L265.782 1.90267Z" fill="black"/>
<path d="M0.573515 1.85352L8.98471 1.87683C9.11646 13.3608 8.97019 24.9682 8.99467 36.4692L0.507632 36.4725C0.465403 34.0088 0.444225 31.5448 0.444134 29.0806C0.508516 25 0.506568 16 0.441967 5.47561C0.437371 4.5 0.477877 2.90138 0.573515 1.85352Z" fill="black"/>
<path d="M61.2441 1.84668C63.9676 1.92008 66.9438 1.86635 69.6873 1.87163C69.9315 5.39992 69.7898 10.6715 69.7993 14.3473C69.847 21.7068 69.8355 29.0665 69.7649 36.4258C66.9322 36.4817 64.0984 36.4533 61.2671 36.3407L61.2441 1.84668Z" fill="black"/>
<path d="M41.9771 25.3389C42.2676 25.362 42.3142 25.4188 42.5449 25.6028C42.7521 26.4468 42.6254 35.7088 42.707 37.6133C39.8092 37.5893 36.9113 37.6426 34.0163 37.7734C33.8539 36.6907 33.8095 33.0302 33.8801 31.8405C34.0021 29.7813 35.2733 29.6119 36.4125 28.7719C37.1579 28.1012 41.0134 25.6219 41.9771 25.3389Z" fill="black"/>
</g>
<defs>
<clipPath id="clip0_146_2444">
<rect width="292" height="38" fill="white"/>
</clipPath>
</defs>
</svg>
